<svg width="20" height="20" viewBox="0 0 20 20" fill="none" xmlns="http://www.w3.org/2000/svg">
<g clip-path="url(#clip0_170_369)">
<path d="M16.5995 3.45104C15.3858 2.89411 14.0842 2.48379 12.7233 2.24879C12.6985 2.24425 12.6738 2.25559 12.661 2.27826C12.4936 2.57598 12.3082 2.96438 12.1784 3.26967C10.7146 3.05054 9.25844 3.05054 7.82475 3.26967C7.69488 2.9576 7.50273 2.57598 7.33458 2.27826C7.32182 2.25634 7.29706 2.24501 7.27228 2.24879C5.91215 2.48304 4.61058 2.89336 3.39607 3.45104C3.38555 3.45557 3.37654 3.46313 3.37056 3.47295C0.901748 7.1613 0.225437 10.759 0.557212 14.3121C0.558714 14.3295 0.568472 14.3461 0.581983 14.3567C2.21083 15.5529 3.78865 16.279 5.33717 16.7604C5.36196 16.768 5.38822 16.7589 5.40399 16.7385C5.77029 16.2383 6.09682 15.7108 6.37678 15.1561C6.3933 15.1237 6.37753 15.0851 6.34376 15.0723C5.82584 14.8758 5.33267 14.6362 4.85827 14.3642C4.82075 14.3423 4.81775 14.2886 4.85227 14.2629C4.9521 14.1881 5.05195 14.1103 5.14728 14.0317C5.16452 14.0174 5.18856 14.0143 5.20883 14.0234C8.3254 15.4463 11.6995 15.4463 14.7792 14.0234C14.7995 14.0136 14.8236 14.0166 14.8416 14.031C14.9369 14.1096 15.0367 14.1881 15.1373 14.2629C15.1718 14.2886 15.1696 14.3423 15.1321 14.3642C14.6577 14.6415 14.1645 14.8758 13.6458 15.0715C13.6121 15.0844 13.597 15.1237 13.6136 15.1561C13.8995 15.71 14.2261 16.2375 14.5856 16.7377C14.6006 16.7589 14.6276 16.768 14.6524 16.7604C16.2084 16.279 17.7862 15.5529 19.4151 14.3567C19.4294 14.3461 19.4384 14.3302 19.4399 14.3128C19.837 10.2051 18.7748 6.63688 16.6243 3.4737C16.619 3.46313 16.61 3.45557 16.5995 3.45104ZM6.84219 12.1486C5.90389 12.1486 5.13076 11.2872 5.13076 10.2293C5.13076 9.17134 5.8889 8.30991 6.84219 8.30991C7.80297 8.30991 8.56862 9.1789 8.5536 10.2293C8.5536 11.2872 7.79546 12.1486 6.84219 12.1486ZM13.1699 12.1486C12.2316 12.1486 11.4585 11.2872 11.4585 10.2293C11.4585 9.17134 12.2166 8.30991 13.1699 8.30991C14.1307 8.30991 14.8964 9.1789 14.8814 10.2293C14.8814 11.2872 14.1307 12.1486 13.1699 12.1486Z" fill="white"/>
</g>
<defs>
<clipPath id="clip0_170_369">
<rect width="19.0434" height="19.0434" fill="white" transform="translate(0.478516 0.153809)"/>
</clipPath>
</defs>
</svg>
