<svg width="20" height="20" viewBox="0 0 20 20" fill="none" xmlns="http://www.w3.org/2000/svg">
<g clip-path="url(#clip0_170_365)">
<path d="M10.1877 0.200439C4.92906 0.200439 0.666016 4.46349 0.666016 9.72212C0.666016 14.1874 3.74038 17.9344 7.88764 18.9635V12.6319H5.92427V9.72212H7.88764V8.46831C7.88764 5.22751 9.35436 3.72537 12.5361 3.72537C13.1394 3.72537 14.1803 3.84382 14.6061 3.96188V6.59939C14.3814 6.57578 13.991 6.56397 13.5062 6.56397C11.945 6.56397 11.3417 7.15546 11.3417 8.69302V9.72212H14.4519L13.9175 12.6319H11.3417V19.1741C16.0565 18.6047 19.7098 14.5904 19.7098 9.72212C19.7094 4.46349 15.4463 0.200439 10.1877 0.200439Z" fill="white"/>
</g>
<defs>
<clipPath id="clip0_170_365">
<rect width="19.0434" height="19.0434" fill="white" transform="translate(0.666016 0.200439)"/>
</clipPath>
</defs>
</svg>
