<svg width="20" height="20" viewBox="0 0 20 20" fill="none" xmlns="http://www.w3.org/2000/svg">
<path fill-rule="evenodd" clip-rule="evenodd" d="M10.3827 1.87305C5.99137 1.87305 2.44141 5.44918 2.44141 9.87335C2.44141 13.4098 4.71599 16.4034 7.87145 17.4629C8.26596 17.5425 8.41047 17.2907 8.41047 17.0789C8.41047 16.8935 8.39746 16.2577 8.39746 15.5953C6.18838 16.0723 5.72836 14.6416 5.72836 14.6416C5.37335 13.7144 4.84733 13.4761 4.84733 13.4761C4.1243 12.9861 4.9 12.9861 4.9 12.9861C5.70203 13.039 6.12288 13.8073 6.12288 13.8073C6.83274 15.0258 7.97662 14.6815 8.4368 14.4695C8.50247 13.9529 8.71298 13.5953 8.93648 13.3967C7.17459 13.2112 5.32085 12.5225 5.32085 9.44942C5.32085 8.57522 5.6362 7.85999 6.13588 7.30374C6.05704 7.1051 5.78087 6.28372 6.21488 5.18439C6.21488 5.18439 6.88541 4.97242 8.3973 6.0056C9.0446 5.83048 9.71214 5.74139 10.3827 5.74064C11.0532 5.74064 11.7368 5.83346 12.368 6.0056C13.88 4.97242 14.5505 5.18439 14.5505 5.18439C14.9845 6.28372 14.7082 7.1051 14.6294 7.30374C15.1422 7.85999 15.4446 8.57522 15.4446 9.44942C15.4446 12.5225 13.5908 13.1979 11.8158 13.3967C12.1051 13.6483 12.3548 14.1251 12.3548 14.8801C12.3548 15.9529 12.3418 16.814 12.3418 17.0788C12.3418 17.2907 12.4865 17.5425 12.8808 17.4631C16.0363 16.4032 18.3108 13.4098 18.3108 9.87335C18.3238 5.44918 14.7609 1.87305 10.3827 1.87305Z" fill="white"/>
</svg>
