<svg width="20" height="20" viewBox="0 0 20 20" fill="none" xmlns="http://www.w3.org/2000/svg">
<g clip-path="url(#clip0_170_366)">
<path d="M9.8127 1.91509C12.3568 1.91509 12.658 1.92624 13.6586 1.97088C14.5884 2.01179 15.0905 2.16801 15.4253 2.29818C15.8679 2.46928 16.1878 2.67756 16.5188 3.00859C16.8535 3.34334 17.0581 3.65949 17.2292 4.1021C17.3594 4.43684 17.5156 4.94268 17.5565 5.86881C17.6011 6.87305 17.6123 7.17433 17.6123 9.71468C17.6123 12.2588 17.6011 12.56 17.5565 13.5605C17.5156 14.4904 17.3594 14.9925 17.2292 15.3273C17.0581 15.7699 16.8498 16.0897 16.5188 16.4208C16.184 16.7555 15.8679 16.9601 15.4253 17.1312C15.0905 17.2614 14.5847 17.4176 13.6586 17.4585C12.6543 17.5031 12.3531 17.5143 9.8127 17.5143C7.26862 17.5143 6.96735 17.5031 5.96683 17.4585C5.03698 17.4176 4.53486 17.2614 4.20011 17.1312C3.7575 16.9601 3.43763 16.7518 3.10661 16.4208C2.77186 16.086 2.56729 15.7699 2.3962 15.3273C2.26602 14.9925 2.10981 14.4867 2.06889 13.5605C2.02426 12.5563 2.0131 12.255 2.0131 9.71468C2.0131 7.17061 2.02426 6.86934 2.06889 5.86881C2.10981 4.93896 2.26602 4.43684 2.3962 4.1021C2.56729 3.65949 2.77558 3.33962 3.10661 3.00859C3.44135 2.67384 3.7575 2.46928 4.20011 2.29818C4.53486 2.16801 5.0407 2.01179 5.96683 1.97088C6.96735 1.92624 7.26862 1.91509 9.8127 1.91509ZM9.8127 0.200439C7.22771 0.200439 6.90412 0.211598 5.88872 0.256231C4.87704 0.300863 4.18152 0.464517 3.57897 0.69884C2.95039 0.944321 2.41852 1.26791 1.89036 1.79978C1.35849 2.32794 1.0349 2.85982 0.789416 3.48468C0.555093 4.09094 0.39144 4.78275 0.346807 5.79443C0.302174 6.81354 0.291016 7.13713 0.291016 9.72212C0.291016 12.3071 0.302174 12.6307 0.346807 13.6461C0.39144 14.6578 0.555093 15.3533 0.789416 15.9558C1.0349 16.5844 1.35849 17.1163 1.89036 17.6445C2.41852 18.1726 2.95039 18.4999 3.57525 18.7417C4.18152 18.976 4.87332 19.1397 5.885 19.1843C6.9004 19.2289 7.22399 19.2401 9.80898 19.2401C12.394 19.2401 12.7176 19.2289 13.733 19.1843C14.7446 19.1397 15.4402 18.976 16.0427 18.7417C16.6676 18.4999 17.1994 18.1726 17.7276 17.6445C18.2558 17.1163 18.5831 16.5844 18.8248 15.9596C19.0591 15.3533 19.2228 14.6615 19.2674 13.6498C19.3121 12.6344 19.3232 12.3108 19.3232 9.72584C19.3232 7.14085 19.3121 6.81726 19.2674 5.80187C19.2228 4.79019 19.0591 4.09466 18.8248 3.49211C18.5905 2.85982 18.2669 2.32794 17.735 1.79978C17.2069 1.27163 16.675 0.944321 16.0501 0.702559C15.4439 0.468237 14.7521 0.304583 13.7404 0.25995C12.7213 0.211598 12.3977 0.200439 9.8127 0.200439Z" fill="white"/>
<path d="M9.81289 4.83105C7.11261 4.83105 4.92188 7.02179 4.92188 9.72207C4.92188 12.4224 7.11261 14.6131 9.81289 14.6131C12.5132 14.6131 14.7039 12.4224 14.7039 9.72207C14.7039 7.02179 12.5132 4.83105 9.81289 4.83105ZM9.81289 12.8947C8.06105 12.8947 6.64024 11.4739 6.64024 9.72207C6.64024 7.97023 8.06105 6.54942 9.81289 6.54942C11.5647 6.54942 12.9855 7.97023 12.9855 9.72207C12.9855 11.4739 11.5647 12.8947 9.81289 12.8947Z" fill="white"/>
<path d="M16.0396 4.63771C16.0396 5.27001 15.5263 5.77957 14.8977 5.77957C14.2654 5.77957 13.7559 5.26629 13.7559 4.63771C13.7559 4.00541 14.2691 3.49585 14.8977 3.49585C15.5263 3.49585 16.0396 4.00913 16.0396 4.63771Z" fill="white"/>
</g>
<defs>
<clipPath id="clip0_170_366">
<rect width="19.0434" height="19.0434" fill="white" transform="translate(0.291016 0.200439)"/>
</clipPath>
</defs>
</svg>
