<svg width="20" height="20" viewBox="0 0 20 20" fill="none" xmlns="http://www.w3.org/2000/svg">
<g clip-path="url(#clip0_170_370)">
<path fill-rule="evenodd" clip-rule="evenodd" d="M19.1469 9.67549C19.1469 14.9342 14.8839 19.1972 9.6252 19.1972C4.36652 19.1972 0.103516 14.9342 0.103516 9.67549C0.103516 4.41681 4.36652 0.153809 9.6252 0.153809C14.8839 0.153809 19.1469 4.41681 19.1469 9.67549ZM9.96641 7.18313C9.04029 7.56834 7.18934 8.36562 4.41358 9.57497C3.96284 9.75422 3.72672 9.92957 3.70522 10.101C3.6689 10.3908 4.03177 10.5049 4.52592 10.6603C4.59313 10.6814 4.66278 10.7033 4.73418 10.7265C5.22034 10.8846 5.87431 11.0694 6.21428 11.0768C6.52267 11.0835 6.86687 10.9563 7.24687 10.6954C9.84035 8.9447 11.1791 8.05983 11.2632 8.04075C11.3225 8.02729 11.4046 8.01037 11.4603 8.05985C11.516 8.10934 11.5105 8.20306 11.5046 8.2282C11.4687 8.38145 10.0442 9.70572 9.30711 10.391C9.07731 10.6047 8.9143 10.7562 8.88098 10.7908C8.80634 10.8684 8.73026 10.9417 8.65714 11.0122C8.20549 11.4476 7.86679 11.7741 8.6759 12.3073C9.06472 12.5635 9.37586 12.7754 9.68626 12.9868C10.0252 13.2176 10.3634 13.4479 10.8008 13.7346C10.9123 13.8077 11.0187 13.8836 11.1224 13.9575C11.5169 14.2387 11.8713 14.4914 12.3092 14.4511C12.5636 14.4277 12.8264 14.1885 12.9599 13.4749C13.2753 11.7886 13.8954 8.13493 14.0387 6.62932C14.0512 6.49741 14.0354 6.3286 14.0227 6.25449C14.0101 6.18038 13.9836 6.07479 13.8872 5.99663C13.7732 5.90406 13.597 5.88454 13.5183 5.88593C13.1601 5.89224 12.6107 6.08329 9.96641 7.18313Z" fill="white"/>
</g>
<defs>
<clipPath id="clip0_170_370">
<rect width="19.0434" height="19.0434" fill="white" transform="translate(0.103516 0.153809)"/>
</clipPath>
</defs>
</svg>
