<svg width="20" height="20" viewBox="0 0 20 20" fill="none" xmlns="http://www.w3.org/2000/svg">
<g clip-path="url(#clip0_170_364)">
<path d="M18.8947 5.91342C18.8947 5.91342 18.7087 4.60047 18.1359 4.02396C17.4106 3.2652 16.5998 3.26148 16.2279 3.21685C13.5648 3.02344 9.56642 3.02344 9.56642 3.02344H9.55898C9.55898 3.02344 5.56062 3.02344 2.89752 3.21685C2.52558 3.26148 1.71475 3.2652 0.989464 4.02396C0.416676 4.60047 0.234425 5.91342 0.234425 5.91342C0.234425 5.91342 0.0410156 7.45697 0.0410156 8.9968V10.4399C0.0410156 11.9798 0.230705 13.5233 0.230705 13.5233C0.230705 13.5233 0.416676 14.8363 0.985745 15.4128C1.71103 16.1715 2.6632 16.1455 3.08721 16.2273C4.61217 16.3724 9.5627 16.417 9.5627 16.417C9.5627 16.417 13.5648 16.4096 16.2279 16.2199C16.5998 16.1753 17.4106 16.1715 18.1359 15.4128C18.7087 14.8363 18.8947 13.5233 18.8947 13.5233C18.8947 13.5233 19.0844 11.9835 19.0844 10.4399V8.9968C19.0844 7.45697 18.8947 5.91342 18.8947 5.91342ZM7.59513 12.1918V6.83955L12.7391 9.52496L7.59513 12.1918Z" fill="white"/>
</g>
<defs>
<clipPath id="clip0_170_364">
<rect width="19.0434" height="19.0434" fill="white" transform="translate(0.0410156 0.200439)"/>
</clipPath>
</defs>
</svg>
